<svg xmlns="http://www.w3.org/2000/svg" viewBox="0 0 1200 675" role="img" aria-label="ePortfolio preview">
  <defs>
    <linearGradient id="a" x1="0" y1="0" x2="1" y2="1">
      <stop offset="0%" stop-color="#09090b" />
      <stop offset="100%" stop-color="#18181b" />
    </linearGradient>
  </defs>
  <rect width="1200" height="675" fill="url(#a)" />
  <!-- Browser mockup -->
  <rect x="80" y="80" width="1040" height="520" rx="16" fill="#18181b" stroke="#3f3f46" stroke-width="2" />
  <rect x="80" y="80" width="1040" height="44" rx="16" fill="#27272a" />
  <circle cx="116" cy="102" r="8" fill="#ef4444" />
  <circle cx="144" cy="102" r="8" fill="#f59e0b" />
  <circle cx="172" cy="102" r="8" fill="#22c55e" />
  <rect x="220" y="90" width="500" height="24" rx="6" fill="#3f3f46" />
  <!-- Navbar -->
  <rect x="80" y="124" width="1040" height="48" fill="#09090b" opacity="0.9" />
  <rect x="104" y="140" width="80" height="16" rx="3" fill="#f4f4f5" />
  <rect x="500" y="140" width="50" height="16" rx="3" fill="#52525b" />
  <rect x="570" y="140" width="50" height="16" rx="3" fill="#52525b" />
  <rect x="640" y="140" width="60" height="16" rx="3" fill="#52525b" />
  <rect x="720" y="140" width="70" height="16" rx="3" fill="#52525b" />
  <!-- Hero content -->
  <rect x="120" y="220" width="180" height="12" rx="3" fill="#52525b" />
  <rect x="120" y="248" width="480" height="48" rx="6" fill="#f4f4f5" />
  <rect x="120" y="312" width="380" height="16" rx="3" fill="#3f3f46" />
  <rect x="120" y="340" width="320" height="16" rx="3" fill="#3f3f46" />
  <rect x="120" y="390" width="120" height="36" rx="8" fill="#f4f4f5" />
  <rect x="256" y="390" width="140" height="36" rx="8" fill="#27272a" stroke="#3f3f46" stroke-width="1" />
  <!-- Social icons -->
  <circle cx="136" cy="466" r="16" fill="#27272a" />
  <circle cx="172" cy="466" r="16" fill="#27272a" />
  <circle cx="208" cy="466" r="16" fill="#27272a" />
  <circle cx="244" cy="466" r="16" fill="#27272a" />
  <!-- Label -->
  <text x="100" y="620" font-family="sans-serif" font-size="32" font-weight="bold" fill="#f4f4f5">Personal ePortfolio</text>
  <text x="100" y="658" font-family="sans-serif" font-size="18" fill="#71717a">Next.js · Tailwind CSS · shadcn/ui</text>
</svg>
